# xmcd
#
# Track frame offsets:
#	150
#	23025
#	45545
#	72475
#	90880
#	127500
#	148395
#	168900
#	195645
#	221775
#	240750
#	258730
#	279450
#
# Disc length: 3878 seconds
#
# Revision: 0
# Processed by: cddbd v1.5.1PL0 Copyright (c) Steve Scherf et al.
# Submitted via: dBpowerAMP V4.0
#
DISCID=b20f240d
DTITLE=Don Garret - Sidewalk Blues
DYEAR=2001
DGENRE=Blues
TTITLE0=I was a wreck on the highway
TTITLE1=Weakness for the blues
TTITLE2=Me and my guitar player
TTITLE3=Always is today
TTITLE4=Sidewalk blues
TTITLE5=Street time again
TTITLE6=New blues song
TTITLE7=Amazing grace by John Newton
TTITLE8=The last song again
TTITLE9=Nowhere
TTITLE10=dg's Praying blues
TTITLE11=dg's Lullaby
TTITLE12=Street interview
EXTD=
EXTT0=
EXTT1=
EXTT2=
EXTT3=
EXTT4=
EXTT5=
EXTT6=
EXTT7=
EXTT8=
EXTT9=
EXTT10=
EXTT11=
EXTT12=
PLAYORDER=
